<svg width="24" height="24" viewBox="0 0 24 24" fill="none" xmlns="http://www.w3.org/2000/svg">
<path d="M20.438 8.24996H20.4375C19.7123 8.24996 19.125 8.8373 19.125 9.56246V15.5625C19.125 16.2872 19.7123 16.8745 20.4375 16.8745C21.1622 16.874 21.7495 16.2867 21.7495 15.5615V9.56152C21.7495 8.83637 21.1617 8.24902 20.437 8.24902L20.438 8.24996Z" fill="#54358E"/>
<path d="M3.56297 8.25021H3.5625C2.83734 8.25021 2.25 8.83755 2.25 9.56271V15.5627C2.25 16.2874 2.83734 16.8747 3.5625 16.8747C4.28719 16.8743 4.87453 16.2869 4.87453 15.5618V9.56177C4.87453 8.83661 4.28672 8.24927 3.56203 8.24927L3.56297 8.25021Z" fill="#54358E"/>
<path d="M5.8125 8.24995V17.2499C5.8125 18.0782 6.48375 18.7495 7.3125 18.7495H8.25V21.937C8.25 22.6617 8.83734 23.249 9.5625 23.249C10.2872 23.2485 10.8745 22.6612 10.8745 21.936V18.7485H13.1245V21.936C13.1245 22.6607 13.7119 23.2481 14.437 23.2481C15.1617 23.2476 15.7491 22.6603 15.7491 21.9351V18.7476H16.6866L16.6861 18.7476C17.5144 18.7476 18.1861 18.0758 18.1861 17.2476V8.24756L5.8125 8.24995Z" fill="#54358E"/>
<path d="M18.0113 6.37499C17.626 5.00202 16.7082 3.82921 15.4698 3.05765C15.4004 3.01452 15.3301 2.97233 15.2588 2.93202C15.1876 2.89124 15.1159 2.8514 15.0441 2.81249L15.2823 2.38687L16.0271 1.04343V1.04296C16.0796 0.947336 16.0454 0.827336 15.9502 0.774367C15.9498 0.773899 15.9498 0.773899 15.9493 0.773899C15.9202 0.757492 15.8884 0.749055 15.8555 0.748586L15.8551 0.748539C15.7829 0.748071 15.7168 0.786977 15.6821 0.850258L14.9274 2.21198L14.6893 2.64088C14.6143 2.6076 14.5384 2.57619 14.4615 2.54713C14.3846 2.51807 14.3077 2.4876 14.2295 2.45994L14.229 2.45948C12.7876 1.95229 11.2168 1.95229 9.77586 2.45948C9.69758 2.48713 9.62023 2.51619 9.54383 2.54666C9.46695 2.5776 9.39102 2.60901 9.31602 2.64041L9.07789 2.21151L8.3232 0.852133L8.32273 0.851664C8.26742 0.756977 8.14602 0.725571 8.0518 0.780883C7.96039 0.833852 7.92758 0.949633 7.97633 1.04291L8.71742 2.38354L8.95555 2.80916C8.88242 2.84713 8.8107 2.88651 8.73992 2.92682C8.66867 2.96713 8.59883 3.00932 8.52992 3.05432C7.29242 3.82588 6.37367 4.99869 5.9893 6.37025H5.98883C5.88242 6.73588 5.82383 7.11416 5.81445 7.49525H18.1829L18.1824 7.49479C18.1726 7.11416 18.114 6.73635 18.0076 6.37072L18.0113 6.37499ZM9.18852 5.62499L9.18805 5.62494C8.87727 5.62447 8.62555 5.37276 8.62555 5.06244C8.62555 4.75166 8.87727 4.49994 9.18805 4.49994C9.49836 4.49994 9.75055 4.75166 9.75055 5.06244V5.06197C9.75055 5.37229 9.49836 5.62447 9.18805 5.62447L9.18852 5.62499ZM14.8135 5.62499L14.813 5.62494C14.5023 5.62447 14.2505 5.37276 14.2505 5.06244C14.2505 4.75166 14.5023 4.49994 14.813 4.49994C15.1234 4.49994 15.3755 4.75166 15.3755 5.06244V5.06197C15.3755 5.37229 15.1234 5.62447 14.813 5.62447L14.8135 5.62499Z" fill="#54358E"/>
</svg>
