<svg width="21" height="24" viewBox="0 0 21 24" fill="none" xmlns="http://www.w3.org/2000/svg">
<path d="M14.0134 3.83753C14.7964 2.94004 15.3511 1.7176 15.3511 0.479691C15.3511 0.309478 15.3348 0.139265 15.3021 0C14.0297 0.0464217 12.4962 0.804643 11.5826 1.82592C10.8648 2.59961 10.196 3.83752 10.196 5.07544C10.196 5.26112 10.2286 5.44681 10.2449 5.5087C10.3265 5.52418 10.457 5.53965 10.5875 5.53965C11.7295 5.53965 13.1651 4.81238 14.0134 3.83753ZM14.9106 5.80271C13.0019 5.80271 11.4521 6.90135 10.457 6.90135C9.39662 6.90135 8.00997 5.8646 6.34598 5.8646C3.19746 5.8646 0 8.34043 0 12.9981C0 15.9072 1.17458 18.971 2.6428 20.9516C3.89895 22.6228 4.99196 24 6.57437 24C8.14048 24 8.82565 23.0097 10.767 23.0097C12.7409 23.0097 13.1814 23.9691 14.9106 23.9691C16.6235 23.9691 17.7655 22.4836 18.8422 21.0135C20.0494 19.3269 20.5551 17.6867 20.5714 17.6093C20.4735 17.5783 17.1945 16.3095 17.1945 12.7505C17.1945 9.67118 19.7721 8.294 19.9189 8.18569C18.2223 5.8646 15.6284 5.80271 14.9106 5.80271Z" fill="#54358E"/>
</svg>
