<svg xmlns="http://www.w3.org/2000/svg" width="45" height="45" viewBox="0 0 45 45"><defs><style>.a{fill:#54358e;}.b{fill:#fff;}</style></defs><g transform="translate(-665.652 -2304.223)"><rect className="a" width="45" height="45" rx="19" transform="translate(665.652 2304.223)"/><g transform="translate(2507.561 2207.424)"><path className="b" d="M-1628.63,118.289q-.006-.031-.014-.063c0-.009,0-.018-.006-.027a11.36,11.36,0,0,0-1.256-4.207,11.384,11.384,0,0,0-4.733-4.793,11.7,11.7,0,0,0-3.509-1.212.783.783,0,0,0-.617.123.777.777,0,0,0-.309.543l-.019.132c-.047.335-.092.652-.152.968a.855.855,0,0,0,.116.671.885.885,0,0,0,.6.347,7.636,7.636,0,0,1,2.869,1.063,8.442,8.442,0,0,1,4.15,8.683,8.115,8.115,0,0,1-3.321,5.678c0-.8,0-1.622,0-2.429a.855.855,0,0,0-.238-.637.831.831,0,0,0-.632-.219c-.343.011-.7.011-1.062,0a.835.835,0,0,0-.636.221.84.84,0,0,0-.24.631c0,1.681,0,3.446,0,5.4a.834.834,0,0,0,.231.616.828.828,0,0,0,.609.23h0c1.817,0,3.64,0,5.418,0h0a.847.847,0,0,0,.634-.24.829.829,0,0,0,.221-.629c-.007-.226-.005-.452,0-.69,0-.117,0-.234,0-.352,0-.619-.276-.9-.889-.9h-.346a11.565,11.565,0,0,0,2.843-5.262c.106-.434.168-.867.229-1.286.018-.123.036-.246.054-.368l.007-.046v-1.886Z" transform="translate(-179.327 0)"/><path className="b" d="M-1820.943,136.9a8.231,8.231,0,0,1-4.281-2.1,8.426,8.426,0,0,1-2.768-7.523,8.3,8.3,0,0,1,3.327-5.786q0,.7,0,1.4v.931a.9.9,0,0,0,.226.718.927.927,0,0,0,.714.213l.312,0c.236,0,.459,0,.682,0a.825.825,0,0,0,.631-.217.858.858,0,0,0,.24-.639c-.005-1.714-.005-3.529,0-5.4a.831.831,0,0,0-.229-.615.822.822,0,0,0-.613-.229c-1.837,0-3.66,0-5.418,0h0a.82.82,0,0,0-.611.235.833.833,0,0,0-.222.629c.005.227,0,.463,0,.691q0,.167,0,.334a.9.9,0,0,0,.226.709.918.918,0,0,0,.7.211h.309a11.358,11.358,0,0,0-2.024,2.95,11.267,11.267,0,0,0-1.015,6.572,11.258,11.258,0,0,0,2.887,6.113,11.449,11.449,0,0,0,6.542,3.575.959.959,0,0,0,.171.016.75.75,0,0,0,.443-.138.783.783,0,0,0,.313-.542q.018-.123.036-.247c.043-.3.084-.578.137-.86a.851.851,0,0,0-.117-.663A.894.894,0,0,0-1820.943,136.9Z" transform="translate(0 -9.076)"/></g></g></svg>