<svg width="26" height="27" viewBox="0 0 26 27" fill="none" xmlns="http://www.w3.org/2000/svg">
<path d="M13.7696 13.5002L9.9346 9.51766C9.73283 9.30687 9.61958 9.02174 9.61958 8.72453C9.61958 8.42732 9.73283 8.14219 9.9346 7.93141C10.0353 7.82596 10.1551 7.74227 10.2871 7.68515C10.4192 7.62804 10.5608 7.59863 10.7038 7.59863C10.8468 7.59863 10.9884 7.62804 11.1204 7.68515C11.2524 7.74227 11.3722 7.82596 11.4729 7.93141L16.0663 12.7014C16.1678 12.806 16.2484 12.9304 16.3034 13.0675C16.3584 13.2046 16.3867 13.3516 16.3867 13.5002C16.3867 13.6487 16.3584 13.7957 16.3034 13.9328C16.2484 14.0699 16.1678 14.1943 16.0663 14.2989L11.4729 19.1252C11.3717 19.2294 11.2517 19.3119 11.1197 19.3679C10.9877 19.4239 10.8463 19.4523 10.7038 19.4514C10.5612 19.4523 10.4199 19.4239 10.2879 19.3679C10.1559 19.3119 10.0358 19.2294 9.9346 19.1252C9.73283 18.9144 9.61958 18.6292 9.61958 18.332C9.61958 18.0348 9.73283 17.7497 9.9346 17.5389L13.7696 13.5002Z" fill="#9B9B9B"/>
</svg>
