<svg width="20" height="20" viewBox="0 0 20 20" fill="none" xmlns="http://www.w3.org/2000/svg">
<g clipPath="url(#clip0)">
<path d="M19.324 3.93954L13.2641 10.0001L19.324 16.0603C20.2254 16.962 20.2254 18.4227 19.324 19.3244C18.8736 19.7748 18.2832 20.0001 17.693 20.0001C17.1018 20.0001 16.5113 19.7751 16.0613 19.3244L10 13.2635L3.93929 19.3244C3.48897 19.7747 2.89845 20.0001 2.30775 20.0001C1.71722 20.0001 1.1271 19.7751 0.676379 19.3244C-0.225 18.423 -0.225 16.9623 0.676379 16.0602L6.7361 10L0.676034 3.93954C-0.225345 3.03816 -0.225345 1.57714 0.676034 0.675762C1.57724 -0.224928 3.0374 -0.224928 3.93895 0.675762L9.99999 6.73628L16.0606 0.675762C16.9623 -0.224928 18.4226 -0.224928 19.3237 0.675762C20.2254 1.57714 20.2254 3.03816 19.324 3.93954Z" fill="black"/>
</g>
<defs>
<clipPath id="clip0">
<rect width="20" height="20.0001" fill="white"/>
</clipPath>
</defs>
</svg>
