<svg width="40" height="40" viewBox="0 0 40 40" fill="none" xmlns="http://www.w3.org/2000/svg">
<path d="M31.6673 3.33325H8.33398C7.0079 3.33325 5.73613 3.86004 4.79845 4.79772C3.86077 5.7354 3.33398 7.00717 3.33398 8.33325V31.6666C3.33398 32.9927 3.86077 34.2644 4.79845 35.2021C5.73613 36.1398 7.0079 36.6666 8.33398 36.6666H31.6673C31.9415 36.6628 32.2147 36.6349 32.484 36.5833L32.984 36.4666H33.1007H33.184L33.8007 36.2333L34.0173 36.1166C34.184 36.0166 34.3673 35.9333 34.534 35.8166C34.7565 35.6529 34.9681 35.4747 35.1673 35.2833L35.284 35.1333C35.4476 34.9674 35.5981 34.7891 35.734 34.5999L35.884 34.3833C36.0004 34.1977 36.1008 34.0025 36.184 33.7999C36.2297 33.72 36.2687 33.6363 36.3007 33.5499C36.384 33.3499 36.434 33.1333 36.5007 32.9166V32.6666C36.5951 32.3409 36.6511 32.0053 36.6673 31.6666V8.33325C36.6673 7.00717 36.1405 5.7354 35.2029 4.79772C34.2652 3.86004 32.9934 3.33325 31.6673 3.33325ZM8.33398 33.3333C7.89196 33.3333 7.46803 33.1577 7.15547 32.8451C6.84291 32.5325 6.66732 32.1086 6.66732 31.6666V24.4833L12.1507 18.9833C12.3056 18.827 12.4899 18.703 12.693 18.6184C12.8961 18.5338 13.114 18.4903 13.334 18.4903C13.554 18.4903 13.7718 18.5338 13.9749 18.6184C14.178 18.703 14.3624 18.827 14.5173 18.9833L28.8507 33.3333H8.33398ZM33.334 31.6666C33.3324 31.8721 33.2929 32.0755 33.2173 32.2666C33.1792 32.3478 33.1346 32.4259 33.084 32.4999C33.0394 32.5705 32.9892 32.6374 32.934 32.6999L24.0173 23.7833L25.484 22.3166C25.6389 22.1604 25.8233 22.0364 26.0264 21.9518C26.2295 21.8672 26.4473 21.8236 26.6673 21.8236C26.8873 21.8236 27.1052 21.8672 27.3083 21.9518C27.5114 22.0364 27.6957 22.1604 27.8507 22.3166L33.334 27.8166V31.6666ZM33.334 23.0999L30.2007 19.9999C29.2469 19.0949 27.9821 18.5904 26.6673 18.5904C25.3525 18.5904 24.0878 19.0949 23.134 19.9999L21.6673 21.4666L16.8673 16.6666C15.9135 15.7616 14.6488 15.2571 13.334 15.2571C12.0192 15.2571 10.7544 15.7616 9.80065 16.6666L6.66732 19.7666V8.33325C6.66732 7.89122 6.84291 7.4673 7.15547 7.15474C7.46803 6.84218 7.89196 6.66659 8.33398 6.66659H31.6673C32.1093 6.66659 32.5333 6.84218 32.8458 7.15474C33.1584 7.4673 33.334 7.89122 33.334 8.33325V23.0999Z" fill="#DBDBDB"/>
</svg>
