<svg width="106" height="24" viewBox="0 0 106 24" fill="none" xmlns="http://www.w3.org/2000/svg">
<path d="M40.24 4.8H48.4V6.56H45.248V16H43.408V6.56H40.24V4.8ZM50.3298 8V9.344C50.7671 8.352 51.5884 7.856 52.7938 7.856V9.728C52.1431 9.68533 51.5671 9.84533 51.0658 10.208C50.5751 10.56 50.3298 11.1467 50.3298 11.968V16H48.6018V8H50.3298ZM60.0315 9.136V8H61.7595V16H60.0315V14.848C59.3808 15.7547 58.4475 16.208 57.2315 16.208C56.1328 16.208 55.1942 15.8027 54.4155 14.992C53.6368 14.1813 53.2475 13.184 53.2475 12C53.2475 10.816 53.6368 9.81867 54.4155 9.008C55.1942 8.19733 56.1328 7.792 57.2315 7.792C58.4475 7.792 59.3808 8.24 60.0315 9.136ZM55.6955 13.84C56.1755 14.32 56.7782 14.56 57.5035 14.56C58.2288 14.56 58.8315 14.32 59.3115 13.84C59.7915 13.3493 60.0315 12.736 60.0315 12C60.0315 11.264 59.7915 10.656 59.3115 10.176C58.8315 9.68533 58.2288 9.44 57.5035 9.44C56.7782 9.44 56.1755 9.68533 55.6955 10.176C55.2155 10.656 54.9755 11.264 54.9755 12C54.9755 12.7253 55.2155 13.3387 55.6955 13.84ZM67.9816 7.792C68.9096 7.792 69.651 8.09067 70.2056 8.688C70.771 9.27467 71.0536 10.0747 71.0536 11.088V16H69.3256V11.264C69.3256 10.6667 69.1656 10.208 68.8456 9.888C68.5256 9.568 68.0883 9.408 67.5336 9.408C66.9043 9.408 66.4083 9.60533 66.0456 10C65.683 10.384 65.5016 10.9547 65.5016 11.712V16H63.7736V8H65.5016V9.024C66.035 8.20267 66.8616 7.792 67.9816 7.792ZM74.4663 10.208C74.4663 10.4533 74.5943 10.656 74.8503 10.816C75.1063 10.9653 75.4796 11.1093 75.9703 11.248C76.3436 11.3333 76.6689 11.424 76.9463 11.52C77.2236 11.616 77.5169 11.76 77.8263 11.952C78.1356 12.1333 78.3703 12.3787 78.5303 12.688C78.7009 12.9867 78.7809 13.3387 78.7703 13.744C78.7703 14.512 78.4716 15.1147 77.8743 15.552C77.2769 15.9893 76.5356 16.208 75.6503 16.208C74.8609 16.208 74.1836 16.0427 73.6183 15.712C73.0529 15.3813 72.6423 14.9227 72.3863 14.336L73.8743 13.472C74.1409 14.24 74.7329 14.624 75.6503 14.624C76.5569 14.624 77.0103 14.3253 77.0103 13.728C77.0103 13.2907 76.5036 12.9493 75.4903 12.704C75.1063 12.608 74.7809 12.512 74.5143 12.416C74.2583 12.32 73.9703 12.1813 73.6503 12C73.3409 11.8187 73.1009 11.5787 72.9303 11.28C72.7703 10.9813 72.6956 10.6347 72.7063 10.24C72.7063 9.504 72.9836 8.912 73.5383 8.464C74.1036 8.016 74.8023 7.792 75.6343 7.792C76.2956 7.792 76.8823 7.94133 77.3943 8.24C77.9169 8.528 78.3169 8.93333 78.5943 9.456L77.1383 10.272C76.8716 9.664 76.3703 9.36 75.6343 9.36C75.2929 9.36 75.0103 9.43467 74.7863 9.584C74.5729 9.73333 74.4663 9.94133 74.4663 10.208ZM84.325 4.592V6.256C83.0663 6.14933 82.437 6.67733 82.437 7.84V8H84.325V9.664H82.437V16H80.709V9.664H79.493V8H80.709V7.84C80.709 6.73067 81.0183 5.89333 81.637 5.328C82.2557 4.76267 83.1517 4.51733 84.325 4.592ZM92.6891 12.736H86.3211C86.4491 13.3333 86.7371 13.7973 87.1851 14.128C87.6438 14.4587 88.2091 14.624 88.8811 14.624C89.7878 14.624 90.4758 14.2933 90.9451 13.632L92.3691 14.464C91.5905 15.6267 90.4225 16.208 88.8651 16.208C87.5745 16.208 86.5238 15.8133 85.7131 15.024C84.9131 14.224 84.5131 13.216 84.5131 12C84.5131 10.816 84.9078 9.81867 85.6971 9.008C86.4758 8.19733 87.4891 7.792 88.7371 7.792C89.8998 7.792 90.8598 8.20267 91.6171 9.024C92.3745 9.84533 92.7531 10.8427 92.7531 12.016C92.7531 12.2293 92.7318 12.4693 92.6891 12.736ZM86.3051 11.328H91.0091C90.8918 10.6987 90.6251 10.2133 90.2091 9.872C89.8038 9.53067 89.3078 9.36 88.7211 9.36C88.0811 9.36 87.5478 9.536 87.1211 9.888C86.6945 10.24 86.4225 10.72 86.3051 11.328ZM96.0016 8V9.344C96.439 8.352 97.2603 7.856 98.4656 7.856V9.728C97.815 9.68533 97.239 9.84533 96.7376 10.208C96.247 10.56 96.0016 11.1467 96.0016 11.968V16H94.2736V8H96.0016ZM101.013 10.208C101.013 10.4533 101.141 10.656 101.397 10.816C101.653 10.9653 102.026 11.1093 102.517 11.248C102.89 11.3333 103.216 11.424 103.493 11.52C103.77 11.616 104.064 11.76 104.373 11.952C104.682 12.1333 104.917 12.3787 105.077 12.688C105.248 12.9867 105.328 13.3387 105.317 13.744C105.317 14.512 105.018 15.1147 104.421 15.552C103.824 15.9893 103.082 16.208 102.197 16.208C101.408 16.208 100.73 16.0427 100.165 15.712C99.5998 15.3813 99.1891 14.9227 98.9331 14.336L100.421 13.472C100.688 14.24 101.28 14.624 102.197 14.624C103.104 14.624 103.557 14.3253 103.557 13.728C103.557 13.2907 103.05 12.9493 102.037 12.704C101.653 12.608 101.328 12.512 101.061 12.416C100.805 12.32 100.517 12.1813 100.197 12C99.8878 11.8187 99.6478 11.5787 99.4771 11.28C99.3171 10.9813 99.2425 10.6347 99.2531 10.24C99.2531 9.504 99.5305 8.912 100.085 8.464C100.65 8.016 101.349 7.792 102.181 7.792C102.842 7.792 103.429 7.94133 103.941 8.24C104.464 8.528 104.864 8.93333 105.141 9.456L103.685 10.272C103.418 9.664 102.917 9.36 102.181 9.36C101.84 9.36 101.557 9.43467 101.333 9.584C101.12 9.73333 101.013 9.94133 101.013 10.208Z" fill="#9B9B9B"/>
<path d="M19.91 15.51H15.38C15.1148 15.51 14.8604 15.6154 14.6729 15.8029C14.4854 15.9904 14.38 16.2448 14.38 16.51C14.38 16.7752 14.4854 17.0296 14.6729 17.2171C14.8604 17.4046 15.1148 17.51 15.38 17.51H17.78C16.6769 18.6627 15.2544 19.4593 13.6952 19.7974C12.1359 20.1355 10.5112 19.9996 9.02978 19.4072C7.54834 18.8149 6.27787 17.7931 5.38159 16.4732C4.48531 15.1532 4.00418 13.5955 4 12C4 11.7348 3.89464 11.4804 3.70711 11.2929C3.51957 11.1054 3.26522 11 3 11C2.73478 11 2.48043 11.1054 2.29289 11.2929C2.10536 11.4804 2 11.7348 2 12C2.00529 13.9528 2.58222 15.8613 3.6596 17.49C4.73699 19.1187 6.26767 20.3964 8.06274 21.1652C9.85782 21.9341 11.8387 22.1605 13.761 21.8166C15.6833 21.4727 17.4628 20.5735 18.88 19.23V21C18.88 21.2652 18.9854 21.5196 19.1729 21.7071C19.3604 21.8946 19.6148 22 19.88 22C20.1452 22 20.3996 21.8946 20.5871 21.7071C20.7746 21.5196 20.88 21.2652 20.88 21V16.5C20.8775 16.2416 20.7752 15.9943 20.5943 15.8097C20.4135 15.6251 20.1683 15.5177 19.91 15.51ZM12 2C9.43639 2.00731 6.97349 2.99891 5.12 4.77V3C5.12 2.73478 5.01464 2.48043 4.82711 2.29289C4.63957 2.10536 4.38522 2 4.12 2C3.85478 2 3.60043 2.10536 3.41289 2.29289C3.22536 2.48043 3.12 2.73478 3.12 3V7.5C3.12 7.76522 3.22536 8.01957 3.41289 8.20711C3.60043 8.39464 3.85478 8.5 4.12 8.5H8.62C8.88522 8.5 9.13957 8.39464 9.32711 8.20711C9.51464 8.01957 9.62 7.76522 9.62 7.5C9.62 7.23478 9.51464 6.98043 9.32711 6.79289C9.13957 6.60536 8.88522 6.5 8.62 6.5H6.22C7.32247 5.34787 8.74409 4.5515 10.3024 4.21311C11.8607 3.87472 13.4846 4.00975 14.9656 4.60086C16.4466 5.19198 17.7172 6.21221 18.6142 7.5306C19.5113 8.849 19.9938 10.4054 20 12C20 12.2652 20.1054 12.5196 20.2929 12.7071C20.4804 12.8946 20.7348 13 21 13C21.2652 13 21.5196 12.8946 21.7071 12.7071C21.8946 12.5196 22 12.2652 22 12C22 10.6868 21.7413 9.38642 21.2388 8.17317C20.7362 6.95991 19.9997 5.85752 19.0711 4.92893C18.1425 4.00035 17.0401 3.26375 15.8268 2.7612C14.6136 2.25866 13.3132 2 12 2Z" fill="#9B9B9B"/>
</svg>
