<svg width="80" height="80" viewBox="0 0 80 80" fill="none" xmlns="http://www.w3.org/2000/svg">
<path d="M29.0001 33.3331C29.6247 33.954 30.4695 34.3024 31.3501 34.3024C32.2307 34.3024 33.0756 33.954 33.7001 33.3331C34.321 32.7086 34.6694 31.8638 34.6694 30.9831C34.6694 30.1025 34.321 29.2577 33.7001 28.6331L12.8001 7.63314C12.1724 7.00546 11.3211 6.65283 10.4335 6.65283C9.54578 6.65283 8.69447 7.00546 8.06679 7.63314C7.43911 8.26082 7.08648 9.11213 7.08648 9.9998C7.08648 10.8875 7.43911 11.7388 8.06679 12.3665L29.0001 33.3331ZM70.0001 46.6665C69.1161 46.6665 68.2682 47.0177 67.6431 47.6428C67.018 48.2679 66.6668 49.1157 66.6668 49.9998V61.9665L51.4668 46.6665C50.8303 46.0299 49.967 45.6724 49.0668 45.6724C48.1666 45.6724 47.3033 46.0299 46.6668 46.6665C46.0303 47.303 45.6727 48.1663 45.6727 49.0665C45.6727 49.9666 46.0303 50.8299 46.6668 51.4665L61.9668 66.6665H50.0001C49.1161 66.6665 48.2682 67.0177 47.6431 67.6428C47.018 68.2679 46.6668 69.1157 46.6668 69.9998C46.6668 70.8839 47.018 71.7317 47.6431 72.3568C48.2682 72.9819 49.1161 73.3331 50.0001 73.3331H70.0001C70.4357 73.3279 70.8661 73.2373 71.2668 73.0665C72.0813 72.7282 72.7285 72.081 73.0668 71.2665C73.2376 70.8657 73.3282 70.4354 73.3335 69.9998V49.9998C73.3335 49.1157 72.9823 48.2679 72.3571 47.6428C71.732 47.0177 70.8842 46.6665 70.0001 46.6665ZM73.0668 8.73314C72.7285 7.91864 72.0813 7.27139 71.2668 6.93314C70.8661 6.76233 70.4357 6.67174 70.0001 6.66647H50.0001C49.1161 6.66647 48.2682 7.01766 47.6431 7.64278C47.018 8.2679 46.6668 9.11575 46.6668 9.9998C46.6668 10.8839 47.018 11.7317 47.6431 12.3568C48.2682 12.9819 49.1161 13.3331 50.0001 13.3331H61.9668L7.63346 67.6331C7.32103 67.943 7.07305 68.3117 6.90382 68.7179C6.73459 69.1241 6.64746 69.5598 6.64746 69.9998C6.64746 70.4398 6.73459 70.8755 6.90382 71.2817C7.07305 71.6879 7.32103 72.0566 7.63346 72.3665C7.94333 72.6789 8.312 72.9269 8.7182 73.0961C9.1244 73.2653 9.56008 73.3525 10.0001 73.3525C10.4402 73.3525 10.8758 73.2653 11.282 73.0961C11.6882 72.9269 12.0569 72.6789 12.3668 72.3665L66.6668 18.0331V29.9998C66.6668 30.8839 67.018 31.7317 67.6431 32.3568C68.2682 32.9819 69.1161 33.3331 70.0001 33.3331C70.8842 33.3331 71.732 32.9819 72.3571 32.3568C72.9823 31.7317 73.3335 30.8839 73.3335 29.9998V9.9998C73.3282 9.56421 73.2376 9.13388 73.0668 8.73314Z" fill="#54358E"/>
</svg>
