<svg width="20" height="20" viewBox="0 0 20 20" fill="none" xmlns="http://www.w3.org/2000/svg">
<path d="M16.8087 7.69171L5.142 2.87504C4.70056 2.69237 4.21603 2.64 3.74575 2.72414C3.27548 2.80828 2.83916 3.0254 2.48845 3.34981C2.13774 3.67422 1.88733 4.09232 1.76685 4.55462C1.64638 5.01692 1.66089 5.50407 1.80867 5.95838L3.092 10L1.77533 14.0417C1.62356 14.4978 1.60651 14.9881 1.72623 15.4536C1.84595 15.9192 2.09735 16.3404 2.45033 16.6667C2.9042 17.0876 3.49807 17.3251 4.117 17.3334C4.44594 17.3332 4.77161 17.268 5.07533 17.1417L16.7837 12.325C17.2397 12.1354 17.6293 11.815 17.9033 11.4042C18.1774 10.9933 18.3237 10.5106 18.3237 10.0167C18.3237 9.52287 18.1774 9.04008 17.9033 8.62927C17.6293 8.21845 17.2397 7.89801 16.7837 7.70838L16.8087 7.69171ZM4.467 15.5834C4.32 15.644 4.15872 15.6613 4.0022 15.6333C3.84568 15.6052 3.70045 15.533 3.58367 15.425C3.47366 15.3199 3.39453 15.1867 3.35486 15.0398C3.3152 14.8929 3.31652 14.7379 3.35867 14.5917L4.57533 10.8334H16.017L4.467 15.5834ZM4.57533 9.16671L3.33367 5.44171C3.29151 5.2955 3.2902 5.14054 3.32986 4.99364C3.36953 4.84674 3.44866 4.7135 3.55867 4.60838C3.63709 4.52611 3.73151 4.46075 3.83613 4.41633C3.94074 4.3719 4.05334 4.34934 4.167 4.35004C4.27871 4.35026 4.38923 4.37293 4.492 4.41671L16.017 9.16671H4.57533Z" fill="white"/>
</svg>
